<mxfile modified="2021-06-22T07:56:58.198Z" host="drawio-plugin" agent="5.0 (Windows NT 6.2; Win64; x64) AppleWebKit/537.36 (KHTML, like Gecko) Chrome/87.0.4280.141 Safari/537.36" etag="SwTDQKE6X7FOAl2gd_An" version="14.7.4" type="embed"><diagram id="Ht1M8jgEwFfnCIfOTk4-" name="Page-1"><mxGraphModel dx="759" dy="570" grid="1" gridSize="10" guides="1" tooltips="1" connect="1" arrows="1" fold="1" page="1" pageScale="1" pageWidth="1169" pageHeight="827" math="0" shadow="0"><root><mxCell id="0"/><mxCell id="1" parent="0"/><mxCell id="xWCxUpjYTB-KlPfz22A8-2" value="AWS Cloud - FOFUN project" style="points=[[0,0],[0.25,0],[0.5,0],[0.75,0],[1,0],[1,0.25],[1,0.5],[1,0.75],[1,1],[0.75,1],[0.5,1],[0.25,1],[0,1],[0,0.75],[0,0.5],[0,0.25]];outlineConnect=0;gradientColor=none;html=1;whiteSpace=wrap;fontSize=12;fontStyle=0;shape=mxgraph.aws4.group;grIcon=mxgraph.aws4.group_aws_cloud_alt;strokeColor=#232F3E;fillColor=none;verticalAlign=top;align=left;spacingLeft=30;fontColor=#232F3E;dashed=0;" parent="1" vertex="1"><mxGeometry x="50" y="210" width="610" height="520" as="geometry"/></mxCell><mxCell id="xWCxUpjYTB-KlPfz22A8-3" value="VPC" style="points=[[0,0],[0.25,0],[0.5,0],[0.75,0],[1,0],[1,0.25],[1,0.5],[1,0.75],[1,1],[0.75,1],[0.5,1],[0.25,1],[0,1],[0,0.75],[0,0.5],[0,0.25]];outlineConnect=0;gradientColor=none;html=1;whiteSpace=wrap;fontSize=12;fontStyle=0;shape=mxgraph.aws4.group;grIcon=mxgraph.aws4.group_vpc;strokeColor=#248814;fillColor=none;verticalAlign=top;align=left;spacingLeft=30;fontColor=#AAB7B8;dashed=0;" parent="1" vertex="1"><mxGeometry x="60" y="290" width="460" height="420" as="geometry"/></mxCell><mxCell id="xWCxUpjYTB-KlPfz22A8-4" value="AWS iPlatinum Cloud" style="points=[[0,0],[0.25,0],[0.5,0],[0.75,0],[1,0],[1,0.25],[1,0.5],[1,0.75],[1,1],[0.75,1],[0.5,1],[0.25,1],[0,1],[0,0.75],[0,0.5],[0,0.25]];outlineConnect=0;gradientColor=none;html=1;whiteSpace=wrap;fontSize=12;fontStyle=0;shape=mxgraph.aws4.group;grIcon=mxgraph.aws4.group_aws_cloud_alt;strokeColor=#232F3E;fillColor=none;verticalAlign=top;align=right;spacingLeft=30;fontColor=#232F3E;dashed=0;" parent="1" vertex="1"><mxGeometry x="750" y="210" width="290" height="520" as="geometry"/></mxCell><mxCell id="xWCxUpjYTB-KlPfz22A8-5" value="" style="outlineConnect=0;fontColor=#232F3E;gradientColor=none;fillColor=#277116;strokeColor=none;dashed=0;verticalLabelPosition=bottom;verticalAlign=top;align=center;html=1;fontSize=12;fontStyle=0;aspect=fixed;pointerEvents=1;shape=mxgraph.aws4.bucket_with_objects;" parent="1" vertex="1"><mxGeometry x="560" y="600" width="75" height="78" as="geometry"/></mxCell><mxCell id="xWCxUpjYTB-KlPfz22A8-15" style="rounded=0;orthogonalLoop=1;jettySize=auto;html=1;exitX=0;exitY=0.5;exitDx=0;exitDy=0;exitPerimeter=0;strokeColor=#1726FF;strokeWidth=2;edgeStyle=orthogonalEdgeStyle;" parent="1" source="xWCxUpjYTB-KlPfz22A8-6" target="xWCxUpjYTB-KlPfz22A8-7" edge="1"><mxGeometry relative="1" as="geometry"><Array as="points"><mxPoint x="519" y="189"/></Array></mxGeometry></mxCell><mxCell id="xWCxUpjYTB-KlPfz22A8-6" value="&lt;b&gt;cicd.iplatinum.pro&lt;br&gt;fofun.iplatinum.pro&lt;/b&gt;" style="points=[[0,0,0],[0.25,0,0],[0.5,0,0],[0.75,0,0],[1,0,0],[0,1,0],[0.25,1,0],[0.5,1,0],[0.75,1,0],[1,1,0],[0,0.25,0],[0,0.5,0],[0,0.75,0],[1,0.25,0],[1,0.5,0],[1,0.75,0]];outlineConnect=0;fontColor=#232F3E;gradientColor=#945DF2;gradientDirection=north;fillColor=#5A30B5;strokeColor=#ffffff;dashed=0;verticalLabelPosition=middle;verticalAlign=middle;align=right;html=1;fontSize=12;fontStyle=0;aspect=fixed;shape=mxgraph.aws4.resourceIcon;resIcon=mxgraph.aws4.route_53;labelPosition=right;spacingBottom=34;spacingLeft=1;spacingRight=-41;" parent="1" vertex="1"><mxGeometry x="790" y="150" width="78" height="78" as="geometry"/></mxCell><mxCell id="xWCxUpjYTB-KlPfz22A8-7" value="ALB" style="outlineConnect=0;fontColor=#232F3E;gradientColor=none;fillColor=#5A30B5;dashed=0;verticalLabelPosition=middle;verticalAlign=middle;align=left;html=1;fontSize=12;fontStyle=0;aspect=fixed;pointerEvents=1;shape=mxgraph.aws4.application_load_balancer;strokeColor=none;shadow=1;sketch=0;comic=0;labelPosition=right;" parent="1" vertex="1"><mxGeometry x="480" y="250" width="78" height="78" as="geometry"/></mxCell><mxCell id="xWCxUpjYTB-KlPfz22A8-9" value="Public subnet" style="points=[[0,0],[0.25,0],[0.5,0],[0.75,0],[1,0],[1,0.25],[1,0.5],[1,0.75],[1,1],[0.75,1],[0.5,1],[0.25,1],[0,1],[0,0.75],[0,0.5],[0,0.25]];outlineConnect=0;gradientColor=none;html=1;whiteSpace=wrap;fontSize=12;fontStyle=0;shape=mxgraph.aws4.group;grIcon=mxgraph.aws4.group_security_group;grStroke=0;strokeColor=#248814;fillColor=#E9F3E6;verticalAlign=top;align=left;spacingLeft=30;fontColor=#248814;dashed=0;" parent="1" vertex="1"><mxGeometry x="70" y="340" width="230" height="360" as="geometry"/></mxCell><mxCell id="xWCxUpjYTB-KlPfz22A8-12" style="edgeStyle=orthogonalEdgeStyle;rounded=0;orthogonalLoop=1;jettySize=auto;html=1;strokeColor=#0000FF;strokeWidth=2;" parent="1" source="xWCxUpjYTB-KlPfz22A8-11" target="xWCxUpjYTB-KlPfz22A8-6" edge="1"><mxGeometry relative="1" as="geometry"/></mxCell><mxCell id="xWCxUpjYTB-KlPfz22A8-11" value="Users" style="outlineConnect=0;fontColor=#232F3E;gradientColor=none;strokeColor=#232F3E;fillColor=#ffffff;dashed=0;verticalLabelPosition=bottom;verticalAlign=top;align=center;html=1;fontSize=12;fontStyle=0;aspect=fixed;shape=mxgraph.aws4.resourceIcon;resIcon=mxgraph.aws4.users;" parent="1" vertex="1"><mxGeometry x="850" y="20" width="60" height="60" as="geometry"/></mxCell><mxCell id="xWCxUpjYTB-KlPfz22A8-13" value="Security Group" style="fontStyle=0;verticalAlign=top;align=center;spacingTop=-2;fillColor=none;rounded=0;whiteSpace=wrap;html=1;strokeColor=#FF0000;strokeWidth=2;dashed=1;container=1;collapsible=0;expand=0;recursiveResize=0;" parent="1" vertex="1"><mxGeometry x="80" y="380" width="209" height="300" as="geometry"/></mxCell><mxCell id="xWCxUpjYTB-KlPfz22A8-14" value="" style="outlineConnect=0;fontColor=#232F3E;gradientColor=none;fillColor=#D86613;strokeColor=none;dashed=0;verticalLabelPosition=bottom;verticalAlign=top;align=center;html=1;fontSize=12;fontStyle=0;aspect=fixed;pointerEvents=1;shape=mxgraph.aws4.t3_instance;" parent="xWCxUpjYTB-KlPfz22A8-13" vertex="1"><mxGeometry x="21" y="40" width="130" height="130" as="geometry"/></mxCell><mxCell id="xWCxUpjYTB-KlPfz22A8-16" value="80" style="html=1;rounded=0;shadow=1;comic=0;sketch=0;strokeColor=#000000;fillColor=#ffffff;gradientColor=#ffffff;align=center;" parent="xWCxUpjYTB-KlPfz22A8-13" vertex="1"><mxGeometry x="141" y="55" width="30" height="30" as="geometry"/></mxCell><mxCell id="xWCxUpjYTB-KlPfz22A8-19" value="8080" style="html=1;rounded=0;shadow=1;comic=0;sketch=0;strokeColor=#000000;fillColor=#ffffff;gradientColor=#ffffff;align=center;" parent="xWCxUpjYTB-KlPfz22A8-13" vertex="1"><mxGeometry x="141" y="110" width="30" height="30" as="geometry"/></mxCell><mxCell id="xWCxUpjYTB-KlPfz22A8-23" style="rounded=0;orthogonalLoop=1;jettySize=auto;html=1;entryX=1;entryY=0.5;entryDx=0;entryDy=0;strokeColor=#1726FF;strokeWidth=2;edgeStyle=orthogonalEdgeStyle;" parent="1" source="xWCxUpjYTB-KlPfz22A8-7" target="xWCxUpjYTB-KlPfz22A8-19" edge="1"><mxGeometry relative="1" as="geometry"><Array as="points"><mxPoint x="519" y="330"/><mxPoint x="440" y="330"/><mxPoint x="440" y="505"/></Array></mxGeometry></mxCell><mxCell id="xWCxUpjYTB-KlPfz22A8-40" value="cicd.iplatinum.pro" style="edgeLabel;html=1;align=center;verticalAlign=middle;resizable=0;points=[];fontColor=#0000FF;" parent="xWCxUpjYTB-KlPfz22A8-23" vertex="1" connectable="0"><mxGeometry x="-0.5191" y="-1" relative="1" as="geometry"><mxPoint x="51" y="-16" as="offset"/></mxGeometry></mxCell><mxCell id="xWCxUpjYTB-KlPfz22A8-29" style="edgeStyle=orthogonalEdgeStyle;rounded=0;orthogonalLoop=1;jettySize=auto;html=1;strokeColor=#000000;strokeWidth=2;" parent="1" source="xWCxUpjYTB-KlPfz22A8-26" target="xWCxUpjYTB-KlPfz22A8-5" edge="1"><mxGeometry relative="1" as="geometry"><Array as="points"><mxPoint x="490" y="639"/><mxPoint x="490" y="639"/></Array></mxGeometry></mxCell><mxCell id="xWCxUpjYTB-KlPfz22A8-26" value="IAM EC2 Policy" style="outlineConnect=0;fontColor=#232F3E;gradientColor=none;fillColor=#277116;strokeColor=none;dashed=0;verticalLabelPosition=bottom;verticalAlign=top;align=center;html=1;fontSize=12;fontStyle=0;aspect=fixed;pointerEvents=1;shape=mxgraph.aws4.policy;shadow=1;comic=0;sketch=0;" parent="1" vertex="1"><mxGeometry x="390" y="600" width="78" height="67" as="geometry"/></mxCell><mxCell id="xWCxUpjYTB-KlPfz22A8-28" style="edgeStyle=orthogonalEdgeStyle;rounded=0;orthogonalLoop=1;jettySize=auto;html=1;strokeColor=#000000;strokeWidth=2;" parent="1" source="xWCxUpjYTB-KlPfz22A8-14" target="xWCxUpjYTB-KlPfz22A8-26" edge="1"><mxGeometry relative="1" as="geometry"><Array as="points"><mxPoint x="175" y="640"/></Array></mxGeometry></mxCell><mxCell id="xWCxUpjYTB-KlPfz22A8-32" style="edgeStyle=orthogonalEdgeStyle;rounded=0;orthogonalLoop=1;jettySize=auto;html=1;strokeColor=#000000;strokeWidth=2;" parent="1" source="xWCxUpjYTB-KlPfz22A8-30" edge="1"><mxGeometry relative="1" as="geometry"><mxPoint x="240" y="760" as="targetPoint"/><Array as="points"><mxPoint x="370" y="760"/><mxPoint x="370" y="760"/></Array></mxGeometry></mxCell><mxCell id="xWCxUpjYTB-KlPfz22A8-30" value="Admins" style="pointerEvents=1;shadow=0;dashed=0;html=1;strokeColor=none;fillColor=#505050;labelPosition=center;verticalLabelPosition=bottom;verticalAlign=top;outlineConnect=0;align=center;shape=mxgraph.office.users.administrator;comic=0;sketch=0;" parent="1" vertex="1"><mxGeometry x="422" y="740" width="58" height="56" as="geometry"/></mxCell><mxCell id="xWCxUpjYTB-KlPfz22A8-33" style="edgeStyle=orthogonalEdgeStyle;rounded=0;orthogonalLoop=1;jettySize=auto;html=1;strokeColor=#000000;strokeWidth=2;" parent="1" source="xWCxUpjYTB-KlPfz22A8-31" target="xWCxUpjYTB-KlPfz22A8-14" edge="1"><mxGeometry relative="1" as="geometry"><Array as="points"><mxPoint x="140" y="744"/></Array></mxGeometry></mxCell><mxCell id="xWCxUpjYTB-KlPfz22A8-31" value="IAM SSM Policy" style="outlineConnect=0;fontColor=#232F3E;gradientColor=none;fillColor=#277116;strokeColor=none;dashed=0;verticalLabelPosition=bottom;verticalAlign=top;align=center;html=1;fontSize=12;fontStyle=0;aspect=fixed;pointerEvents=1;shape=mxgraph.aws4.policy;shadow=1;comic=0;sketch=0;" parent="1" vertex="1"><mxGeometry x="160" y="710" width="78" height="67" as="geometry"/></mxCell><mxCell id="xWCxUpjYTB-KlPfz22A8-34" value="Internet&#10;gateway" style="outlineConnect=0;fontColor=#232F3E;gradientColor=none;strokeColor=#232F3E;fillColor=#ffffff;dashed=0;verticalLabelPosition=bottom;verticalAlign=top;align=center;html=1;fontSize=12;fontStyle=0;aspect=fixed;shape=mxgraph.aws4.resourceIcon;resIcon=mxgraph.aws4.internet_gateway;shadow=1;comic=0;sketch=0;" parent="1" vertex="1"><mxGeometry x="305" y="230" width="60" height="60" as="geometry"/></mxCell><mxCell id="xWCxUpjYTB-KlPfz22A8-37" value="CI/CD" style="shape=image;verticalLabelPosition=bottom;labelBackgroundColor=none;verticalAlign=top;aspect=fixed;imageAspect=0;image=https://cdn.iconscout.com/icon/free/png-512/jenkins-5-569553.png;" parent="1" vertex="1"><mxGeometry x="300" y="475" width="50" height="50" as="geometry"/></mxCell><mxCell id="xWCxUpjYTB-KlPfz22A8-39" style="edgeStyle=orthogonalEdgeStyle;rounded=0;orthogonalLoop=1;jettySize=auto;html=1;entryX=1;entryY=0.5;entryDx=0;entryDy=0;strokeWidth=2;strokeColor=#0000FF;" parent="1" source="xWCxUpjYTB-KlPfz22A8-25" target="xWCxUpjYTB-KlPfz22A8-16" edge="1"><mxGeometry relative="1" as="geometry"/></mxCell><mxCell id="xWCxUpjYTB-KlPfz22A8-25" value="NGINX Web" style="shape=image;verticalLabelPosition=top;labelBackgroundColor=none;verticalAlign=bottom;aspect=fixed;imageAspect=0;image=https://cdn1.iconfinder.com/data/icons/programing-development-8/24/nginx_logo-128.png;labelPosition=center;align=center;" parent="1" vertex="1"><mxGeometry x="305" y="430" width="40" height="40" as="geometry"/></mxCell><mxCell id="xWCxUpjYTB-KlPfz22A8-38" value="" style="edgeStyle=orthogonalEdgeStyle;rounded=0;orthogonalLoop=1;jettySize=auto;html=1;entryX=1;entryY=0.5;entryDx=0;entryDy=0;strokeColor=#1726FF;strokeWidth=2;endArrow=none;" parent="1" source="xWCxUpjYTB-KlPfz22A8-7" target="xWCxUpjYTB-KlPfz22A8-25" edge="1"><mxGeometry relative="1" as="geometry"><mxPoint x="480.00121366776625" y="300" as="sourcePoint"/><mxPoint x="260" y="455" as="targetPoint"/><Array as="points"><mxPoint x="413" y="280"/><mxPoint x="413" y="450"/></Array></mxGeometry></mxCell><mxCell id="xWCxUpjYTB-KlPfz22A8-41" value="fofun.iplatinum.pro" style="edgeLabel;html=1;align=center;verticalAlign=middle;resizable=0;points=[];fontColor=#0000FF;" parent="xWCxUpjYTB-KlPfz22A8-38" vertex="1" connectable="0"><mxGeometry x="-0.6918" y="1" relative="1" as="geometry"><mxPoint y="-11" as="offset"/></mxGeometry></mxCell></root></mxGraphModel></diagram></mxfile>